Patient4_TMGait_0pt6_02_left_45_EMG.mot
version=1
nRows=16
nColumns=33
inDegrees=no
endheader
time	1LAddLong	2LGlutMax	3LGlutMed	4LIliopsoas	5LSemiMemb	6LBicFemLong	7LRecFem	8LVastMed	9LVastLat	10LGasMed	11LTibAnt	12lTibPost	13LPeroneusLong	14LSol	15LExtDigLong	16LFlexDigLong	17RAddLong	18RGlutMax	19RGlutMed	20RIliopsoas	21RSemiMemb	22RBicFemLong	23RRecFem	24RVastMed	25RVastLat	26RGasMed	27RTibAnt	28RTibPost	29RPeroneusLong	30RSol	31RExtDigLong	32RFlexDigLong
56.193	0.002136	0.6279	-0.044098	0.004272	0.026398	-0.10437	-0.075531	0.006104	0.079956	-0.029602	0.032501	0.005341	0.095215	-0.007629	-0.050812	-0.015259	0.028992	-0.50323	-0.085602	0.037231	-0.023499	0.003357	0.29709	0.082397	0.19363	0.00946	-0.31555	0.005951	0.009003	-0.31921	-0.000763	0.000305
56.194	-0.011749	0.6514	-0.056305	0.02243	0.046997	-0.082855	-0.075684	0.004272	0.076904	-0.038452	0.075989	0.012054	0.095825	-0.008698	-0.03006	-0.00824	-0.006256	-0.49393	-0.19638	0.035095	-0.011902	0.02655	0.10574	0.05127	-0.12558	0.01709	-0.96558	0.002747	0.052948	-0.34866	-0.00061	-0.008545
56.195	-0.039825	0.73532	-0.031128	0.016937	0.034027	-0.023041	-0.071716	0.001068	0.071106	-0.015411	0.099335	0.00885	0.072021	0.01709	0.010529	-0.002594	-0.009003	-0.48706	-0.16525	-0.02121	0.00946	0.049896	-0.098267	-0.001526	-0.37216	0.017548	-0.59479	0.001068	0.21835	-0.42282	-0.004578	0
56.196	0.070801	0.79208	-0.02655	0.003815	-0.006104	-0.007935	-0.061493	0.00412	0.074005	-0.008392	0.069427	0.009308	0.05127	-0.04303	0.021515	0.012665	0.002289	-0.53085	0.22888	0.027618	-0.007629	0.029755	0.18066	-0.1976	-0.63583	0.019226	-0.14145	-0.005646	0.29068	-0.21759	-0.002899	-0.007477
56.197	-0.018768	0.8255	-0.014496	-0.001984	-0.054932	-0.011292	-0.063782	0.001373	0.052032	-0.023651	0.0354	0.015106	0.065002	-0.067902	0.001984	-0.003204	0.007477	-0.50568	0.092621	0.051727	-0.000153	0.028839	0.07019	-0.019989	-0.60028	0.005646	0.30884	-0.003662	-0.059814	0.079803	-0.003815	-0.003815
56.198	-0.010529	0.90118	-0.055542	0.003052	-0.086365	-0.004425	-0.058136	0.000763	0.055847	-0.023041	0.020294	0.009003	0.08194	-0.040588	-0.017242	0.010834	0.000458	-0.4335	0.14786	-0.10452	0.000305	0.020142	-0.42923	0.30518	-0.47928	0.004425	-0.037994	-0.001221	-0.12878	0.20294	-0.003662	-0.000305
56.199	0.020599	0.94986	-0.078125	-0.001678	-0.016022	-0.014191	-0.065002	-0.002441	0.058746	-0.034027	0.005188	0.008698	0.093536	-0.00946	0.001984	0.012512	0.00885	-0.32806	0.14282	-0.074921	-0.022125	0.00351	-0.5127	0.26367	-0.18799	0.007477	-0.50781	-0.010376	0.080414	0.30304	-0.002136	0.001526
56.2	0.0177	1.0039	-0.10986	0.019073	0.015411	0.010223	-0.085754	0.003967	0.052643	-0.026398	0.004883	0.010071	0.095978	-0.032501	0.020142	0.006561	0.000153	-0.36438	-0.24414	0.00885	-0.024109	-0.006104	-0.50751	0.14694	0.083008	0.021515	-0.51407	-0.000916	0.3688	0.057373	-0.001831	0.005951
56.201	0.002594	1.0272	-0.10544	0.005798	0.018158	0.036774	-0.08728	0.001984	0.040894	0.016937	0.013733	0.011749	0.069427	0.001068	0.009155	0.053406	-0.007324	-0.34836	-0.17456	0.099487	-0.007782	0.002747	-0.46051	0.15106	0.23178	0.021515	-0.97992	-0.001221	0.61447	-0.16235	0.000458	0.002899
56.202	0.009766	1.0771	-0.029907	0.002289	-0.040588	0.030975	-0.083618	0.003967	0.048981	0.03952	0.015717	0.013123	0.077362	0.042877	0.007324	0.006866	0.002899	-0.31189	0.34317	-0.089111	-0.016174	-0.014648	-0.14557	0.11063	0.23682	0.011139	-1.4432	-0.005493	0.50537	-0.1265	-0.002289	-0.007935
56.203	0.005035	1.0388	0.011749	0.001678	-0.046539	0.018311	-0.084381	0.006409	0.039215	0.018005	0.003204	0.011292	0.10025	0.03067	0.015717	-0.002899	-0.00351	-0.37033	0.066681	-0.10559	-0.004578	0.010986	-0.29114	0.26047	0.19867	0.000458	-0.63324	-0.005188	0.38345	-0.10101	-0.000153	-0.009766
56.204	0.013123	1.0136	0.044861	0.007019	-0.037231	-0.030975	-0.085602	0.005493	0.044403	-0.008698	0.007935	0.007324	0.11292	0.035858	0.003967	-0.017548	0.001068	-0.36667	-0.49103	-0.075378	-0.000916	0.008545	-0.14938	0.12833	0.026093	-0.010834	0.28809	-0.002747	0.46143	-0.13916	-0.001678	-0.006561
56.205	0.012817	0.95505	0.04303	0.006561	-0.047913	-0.098267	-0.10117	0.005188	0.040741	-0.021057	0.004883	0.00412	0.091858	0.031586	-0.001526	-0.008392	0.012207	-0.32547	-0.26779	-0.088959	-0.002594	0.027771	0.071411	-0.000763	-0.099487	-0.006409	0.11017	-0.004272	0.22186	-0.073242	-0.003357	-0.007019
56.206	0.018158	0.91766	0.031891	-0.004883	-0.026703	-0.07843	-0.082703	0.000763	0.036011	-0.035706	0.0177	0.014038	0.050201	0.034485	0.006409	0.007782	0.018005	-0.32181	-0.19486	0.039215	-0.00824	0.02182	0.053101	0.070953	-0.11383	-0.007324	-0.076599	-0.000763	0.067749	0.14313	-0.00061	-0.00824
56.207	0.023499	0.86426	0.025482	0.011292	0.046387	-0.034332	-0.092316	0.00061	0.036011	-0.042419	0.007477	0.009918	0.074158	0.01709	0.001984	-0.000458	0.013733	-0.27924	-0.081329	0.21698	-0.001526	0.022736	0.071869	0.088806	-0.05188	-0.009308	0.18356	0.007629	0.006866	0.11871	0.002136	-0.014038
56.208	0.017853	0.8223	0.015717	0.031891	0.036011	-0.010071	-0.081482	0.002441	0.037537	-0.032654	-0.003052	0.02533	0.12619	0.010529	0.015259	-0.002899	-0.006561	-0.2771	0.12161	0.19592	0.020447	0.027161	-0.23758	0.096588	0.11353	0.005646	0.62378	0.000305	-0.30106	-0.16495	0	-0.01236
